<svg width="320" height="96" viewBox="0 0 320 96" fill="none" xmlns="http://www.w3.org/2000/svg" role="img" aria-label="RealiBoost logo">
  <defs>
    <linearGradient id="rb-gradient" x1="0" y1="0" x2="1" y2="1">
      <stop offset="0%" stop-color="#FFB347" />
      <stop offset="52%" stop-color="#FF6F3D" />
      <stop offset="100%" stop-color="#FF3D6B" />
    </linearGradient>
    <linearGradient id="rb-stroke" x1="0" y1="0" x2="1" y2="0">
      <stop offset="0%" stop-color="#1D2438" />
      <stop offset="100%" stop-color="#3C4A6B" />
    </linearGradient>
    <linearGradient id="rb-glow" x1="0" y1="0" x2="1" y2="1">
      <stop offset="0%" stop-color="#1A2236" />
      <stop offset="100%" stop-color="#0B1120" />
    </linearGradient>
  </defs>

  <g transform="translate(12 10)">
    <rect x="0" y="8" width="72" height="72" rx="18" fill="url(#rb-glow)" stroke="url(#rb-gradient)" stroke-width="2" />
    <rect x="10" y="18" width="52" height="52" rx="14" fill="#0E1526" stroke="rgba(255,255,255,0.06)" />

    <path d="M18 44L36 30L54 44" stroke="url(#rb-gradient)" stroke-width="4" stroke-linecap="round" stroke-linejoin="round" />
    <rect x="22" y="44" width="28" height="22" rx="6" stroke="url(#rb-gradient)" stroke-width="3.5" />

    <path d="M28 58L42 44" stroke="url(#rb-gradient)" stroke-width="3.5" stroke-linecap="round" />
    <path d="M40 44H48V52" stroke="url(#rb-gradient)" stroke-width="3.5" stroke-linecap="round" stroke-linejoin="round" />

    <path d="M32 50L42 56L32 62V50Z" fill="url(#rb-gradient)" />

    <circle cx="56" cy="24" r="2.2" fill="url(#rb-gradient)" />
    <path d="M58 18C62.5 20 65 24 65 28" stroke="url(#rb-gradient)" stroke-width="2.6" stroke-linecap="round" opacity="0.85" />
    <path d="M58 12C66 15 71 21 71 28" stroke="url(#rb-gradient)" stroke-width="2.6" stroke-linecap="round" opacity="0.55" />
  </g>

  <g transform="translate(96 16)">
    <text x="0" y="34" font-family="'Sora', 'Segoe UI', sans-serif" font-size="34" font-weight="700" fill="url(#rb-stroke)">Reali</text>
    <text x="78" y="34" font-family="'Sora', 'Segoe UI', sans-serif" font-size="34" font-weight="800" fill="url(#rb-gradient)">Boost</text>
    <text x="0" y="66" font-family="'Work Sans', 'Segoe UI', sans-serif" font-size="13.5" letter-spacing="0.26em" fill="#7A859E">VIDEO MARKETING</text>
  </g>
</svg>
